<?xml version="1.0" standalone="no"?><!DOCTYPE svg PUBLIC "-//W3C//DTD SVG 1.1//EN"
        "http://www.w3.org/Graphics/SVG/1.1/DTD/svg11.dtd">
<svg t="1753783474295" class="icon" viewBox="0 0 1024 1024" version="1.1" xmlns="http://www.w3.org/2000/svg"
     p-id="78418" width="200" height="200">
    <path d="M917.703111 148.792889l-42.410667-42.382222a8.248889 8.248889 0 0 0-11.377777 0l-76.117334 76.088889a199.281778 199.281778 0 0 0-112.099555-34.304c-51.2 0-102.4 19.512889-141.511111 58.595555l-101.888 101.916445a8.049778 8.049778 0 0 0 0 11.292444l271.701333 271.701333c1.592889 1.592889 3.584 2.275556 5.688889 2.275556 1.991111 0 4.096-0.768 5.688889-2.275556l101.916444-101.916444a200.220444 200.220444 0 0 0 24.291556-253.496889l76.117333-76.088889a8.163556 8.163556 0 0 0 0-11.377778zM578.901333 546.702222a8.021333 8.021333 0 0 0-11.320889 0l-66.56 66.588445-90.339555-90.282667 66.702222-66.702222a8.021333 8.021333 0 0 0 0-11.320889l-36.408889-36.408889a8.049778 8.049778 0 0 0-11.292444 0l-66.702222 66.730667-42.979556-43.008a7.907556 7.907556 0 0 0-5.688889-2.275556 8.448 8.448 0 0 0-5.717333 2.275556L206.791111 534.186667a200.192 200.192 0 0 0-24.291555 253.496889L106.382222 863.800889a8.021333 8.021333 0 0 0 0 11.292444l42.410667 42.382223c1.592889 1.621333 3.612444 2.332444 5.688889 2.332444a8.277333 8.277333 0 0 0 5.688889-2.304l76.117333-76.117333a199.253333 199.253333 0 0 0 112.099556 34.304c51.2 0 102.4-19.484444 141.511111-58.595556l101.888-101.888a8.021333 8.021333 0 0 0 0-11.320889l-42.979556-42.979555 66.673778-66.702223a8.021333 8.021333 0 0 0 0-11.320888l-36.579556-36.181334z"
          fill="" fill-opacity=".65" p-id="78419"></path>
</svg>
