<?xml version="1.0" standalone="no"?>
<!DOCTYPE svg PUBLIC "-//W3C//DTD SVG 1.1//EN" "http://www.w3.org/Graphics/SVG/1.1/DTD/svg11.dtd">
<svg t="1753773891917" class="icon" viewBox="0 0 1024 1024" version="1.1" xmlns="http://www.w3.org/2000/svg" p-id="30095" xmlns:xlink="http://www.w3.org/1999/xlink" width="200" height="200">
    <!-- 先绘制一个填充的矩形作为背景 -->
    <rect x="62" y="62" width="900" height="900" rx="100" fill="currentColor"/>

    <!-- 然后使用白色路径绘制COS字母(实际是挖空效果) -->
    <path d="M279.3 640.8c-18.4 0-32.2-9.4-41.4-27.7-10-18.9-14.6-45.4-14.6-79 0-33 5-59 15-77.3 10-18.9 23.8-27.7 41.4-27.7 14.2 0 25.9 4.7 34.7 14.2 8.4 9.4 14.2 23.6 17.1 43.1h47.2c-4.2-38.3-15-66.6-32.2-85.5-16.7-17.7-38.8-26.5-66.8-26.5-33.8 0-60.1 15.9-78.9 47.8-17.5 28.9-26.3 66.6-26.3 112.6 0 47.2 8.8 85.5 26.7 115 18.4 30.7 44.3 46 77.7 46 28 0 50.5-10 67.3-29.5 17.1-20.1 28.4-50.7 33.4-92h-47.2c-3.8 44.1-21.3 66.5-53.1 66.5zM517.4 374.2c-33 0-59.3 14.7-78.9 45.4-20 30.1-29.7 68.4-29.7 115.6 0 46.6 9.6 84.9 29.2 114.4 20 30.7 46.4 46 79.4 46 32.6 0 59.3-15.3 79.4-46C616 620.1 626 581.8 626 535.2c0-47.2-10-85.5-29.7-115.6-20-30.6-46.3-45.4-78.9-45.4z m46 233.6c-10.9 21.8-26.3 33-45.9 33-20 0-35.1-11.2-45.9-33-9.2-18.9-13.8-43.1-13.8-72.5 0-29.5 4.6-54.3 13.8-73.1 10.9-22.4 25.9-33 45.9-33 19.6 0 35.1 10.6 45.9 33 9.2 18.9 14.2 43.6 14.2 73.1 0 28.8-5 53-14.2 72.5z"
          fill="#ffffff" p-id="30096"></path>
    <path d="M823.6 534c-11.7-11.2-30.1-20.6-54.3-28.9-21.7-7.7-35.9-13.6-43-17.7-11.7-7.1-17.1-15.9-17.1-25.4 0-11.8 3.3-20.1 10.9-25.4 6.3-5.3 15.9-7.7 28.4-7.7 14.6 0 25.5 2.9 32.6 9.4 6.7 5.9 11.7 17.1 15 32.4h46.4c-5-64.9-36.3-96.7-93.1-96.7-26.7 0-48 7.7-64.3 24.2-16.7 15.3-24.6 37.2-24.6 65.5 0 26.5 8.4 47.2 25.1 61.9 10.4 9.4 28.4 18.3 53.9 26.5 21.7 7.1 35.9 12.4 42.6 17.1 12.5 8.3 18.8 19.5 18.8 33.6 0 24.8-16.7 37.7-50.1 37.7-15.9 0-27.1-4.1-34.2-11.2-7.1-8.3-12.1-21.8-14.6-41.3h-46.4c4.6 71.4 36.8 107.3 96.9 107.3 64.7 0 97.3-32.4 97.3-97.3-0.3-26.8-9.1-48.6-26.2-64z"
          fill="#ffffff" p-id="30098"></path>

    <!-- 边框路径也改为白色 -->
    <path d="M841.3 62H182.7C116.1 62 62 116.1 62 182.7v658.5C62 907.9 116.1 962 182.7 962h658.5c66.7 0 120.7-54.1 120.7-120.7V182.7C962 116.1 907.9 62 841.3 62z m54.8 779.3c0 30.3-24.6 54.9-54.9 54.9H182.7c-30.3 0-54.9-24.6-54.9-54.9V182.7c0-30.3 24.6-54.9 54.9-54.9h658.5c30.3 0 54.9 24.6 54.9 54.9v658.6z"
          fill="#ffffff" p-id="30097"></path>
</svg>
