<?xml version="1.0" standalone="no"?><!DOCTYPE svg PUBLIC "-//W3C//DTD SVG 1.1//EN"
        "http://www.w3.org/Graphics/SVG/1.1/DTD/svg11.dtd">
<svg t="1753776727618" class="icon" viewBox="0 0 1024 1024" version="1.1" xmlns="http://www.w3.org/2000/svg"
     p-id="51698" width="200" height="200">
    <path d="M984.064 118.784l-286.72 251.904v569.344c0 30.72-15.36 57.344-40.96 72.704-12.288 7.168-26.624 11.264-39.936 11.264-14.336 0-28.672-4.096-41.984-12.288L391.168 901.12c-39.936-24.576-64.512-68.608-64.512-115.712V370.688l-286.72-251.904c-20.48-18.432-28.672-48.128-18.432-74.752C30.72 17.408 55.296 0 82.944 0h858.112c27.648 0 52.224 17.408 61.44 44.032 10.24 26.624 2.048 56.32-18.432 74.752zM780.288 435.2h160.768c24.576 0 45.056 20.48 45.056 46.08s-20.48 46.08-45.056 46.08H780.288c-24.576 0-45.056-20.48-45.056-46.08s19.456-46.08 45.056-46.08z m0 135.168h160.768c24.576 0 45.056 20.48 45.056 46.08s-20.48 46.08-45.056 46.08H780.288c-24.576 0-45.056-20.48-45.056-46.08 0-24.576 19.456-46.08 45.056-46.08z m0 135.168h160.768c24.576 0 45.056 20.48 45.056 46.08s-20.48 46.08-45.056 46.08H780.288c-24.576 0-45.056-20.48-45.056-46.08s19.456-46.08 45.056-46.08z"
          fill="" p-id="51699"></path>
</svg>
