<?xml version="1.0" standalone="no"?><!DOCTYPE svg PUBLIC "-//W3C//DTD SVG 1.1//EN"
        "http://www.w3.org/Graphics/SVG/1.1/DTD/svg11.dtd">
<svg t="1753780125490" class="icon" viewBox="0 0 1024 1024" version="1.1" xmlns="http://www.w3.org/2000/svg"
     p-id="76364" width="200" height="200">
    <path d="M960 512a448 448 0 1 0-448 448 448 448 0 0 0 448-448z m-497.28 210.24a729.6 729.6 0 0 1-224-224 96 96 0 1 1 164.48-98.88 496 496 0 0 0 108.8 122.56 564.8 564.8 0 0 0 109.12-123.52 96 96 0 1 1 164.48 98.88 729.6 729.6 0 0 1-224 224 96 96 0 0 1-98.88 0.96z"
          fill="" p-id="76365"></path>
</svg>
