<?xml version="1.0" standalone="no"?><!DOCTYPE svg PUBLIC "-//W3C//DTD SVG 1.1//EN"
        "http://www.w3.org/Graphics/SVG/1.1/DTD/svg11.dtd">
<svg t="1753776840229" class="icon" viewBox="0 0 1024 1024" version="1.1" xmlns="http://www.w3.org/2000/svg"
     p-id="54366" width="200" height="200">
    <path d="M0 192c0-35.34 28.66-64 64-64h225.2c39 0 75.6 17.68 100 48.04L606.8 448H768v-96c0-19.4 11.6-37 29.6-44.4 18-7.4 38.6-3.2 50.6 10.4l160 160c20.4 18.8 20.4 49.2 0 66.2l-160 160c-12 15.4-32.6 19.6-50.6 12.2-18-7.4-29.6-25-29.6-44.4v-96h-161.2L389.2 846.2c-24.2 32.2-61 49.8-100 49.8H64c-35.34 0-64-28.6-64-64s28.66-64 64-64h225.2L494 512 289.2 256H64c-35.34 0-64-28.6-64-64z"
          p-id="54367"></path>
</svg>
