<?xml version="1.0" standalone="no"?><!DOCTYPE svg PUBLIC "-//W3C//DTD SVG 1.1//EN"
        "http://www.w3.org/Graphics/SVG/1.1/DTD/svg11.dtd">
<svg t="1753774383853" class="icon" viewBox="0 0 1024 1024" version="1.1" xmlns="http://www.w3.org/2000/svg"
     p-id="31977" width="200" height="200">
    <path d="M912 782.4c12.8 12.8 25.6 27.2 33.6 43.2l9.6 12.8c1.6 4.8 3.2 9.6 4.8 12.8v1.6c-24-6.4-48-12.8-70.4-22.4-25.6-11.2-75.2-33.6-76.8-35.2-128-60.8-116.8-65.6-134.4-78.4-8-8-16-17.6-24-25.6-17.6-16-30.4-35.2-41.6-56-3.2-11.2-8-22.4-11.2-33.6v-1.6c-1.6 3.2-3.2 6.4-3.2 11.2-6.4 19.2-4.8 41.6-22.4 46.4-19.2 6.4-30.4-16-35.2-27.2-16-43.2-14.4-89.6 3.2-131.2 3.2-9.6 6.4-19.2 11.2-28.8-1.6-4.8-3.2-9.6-8-14.4-4.8-8-8-16-11.2-25.6-4.8-17.6-9.6-35.2-12.8-54.4-1.6-8-1.6-14.4-3.2-20.8-4.8-11.2-9.6-20.8-14.4-30.4-8-14.4-28.8-41.6-16-65.6 4.8-12.8 17.6-19.2 32-16 20.8 4.8 41.6 16 57.6 30.4 4.8 4.8 9.6 11.2 14.4 14.4 9.6 1.6 17.6 3.2 27.2 4.8 16 4.8 30.4 11.2 44.8 20.8 56 40 99.2 96 124.8 158.4 4.8 14.4 9.6 30.4 14.4 46.4 6.4 24 14.4 48 22.4 70.4 3.2 11.2 6.4 20.8 11.2 32 3.2 3.2 8 6.4 12.8 8 11.2 8 25.6 14.4 35.2 24 19.2 16 38.4 35.2 54.4 54.4 6.4 8 9.6 17.6 16 25.6v3.2c-6.4 1.6-12.8 1.6-17.6 3.2-12.8 1.6-24 0-36.8 3.2-8 1.6-17.6 3.2-25.6 3.2v1.6c0 11.2 24 25.6 35.2 35.2zM616 323.2c-3.2-4.8-8-8-14.4-9.6h-3.2c-12.8-3.2-27.2 8-16 17.6 8 12.8 14.4 27.2 17.6 41.6 16-6.4 24-24 19.2-41.6 0-3.2-1.6-6.4-3.2-8z m3.2-68.8l-6.4-3.2-28.8-4.8c-1.6-1.6-3.2-3.2-3.2-4.8-3.2-3.2-4.8-6.4-8-9.6-20.8-19.2-44.8-32-72-36.8-22.4-3.2-43.2 8-52.8 27.2-16 30.4 3.2 62.4 14.4 80 1.6 3.2 3.2 4.8 4.8 8l4.8 6.4c4.8 8 8 16 11.2 24 1.6 3.2 1.6 6.4 1.6 9.6 0 4.8 1.6 8 1.6 12.8l3.2 16c3.2 14.4 6.4 30.4 11.2 44.8 3.2 9.6 8 20.8 12.8 30.4-43.2 6.4-88 11.2-131.2 11.2-176 0-318.4-52.8-318.4-116.8V256c0-64 142.4-116.8 316.8-116.8S697.6 192 697.6 256v48c-9.6-9.6-20.8-17.6-32-27.2-14.4-9.6-30.4-17.6-46.4-22.4zM380.8 536c38.4 0 76.8-3.2 115.2-8-8 38.4-4.8 80 9.6 116.8 3.2 6.4 6.4 14.4 11.2 20.8-44.8 8-91.2 11.2-136 11.2C206.4 675.2 64 622.4 64 558.4v-139.2c0 64 142.4 116.8 316.8 116.8z m0 208c97.6 0 184-16 241.6-41.6 3.2 4.8 8 8 11.2 12.8 3.2 3.2 6.4 6.4 8 9.6 6.4 8 12.8 14.4 19.2 19.2 3.2 1.6 4.8 4.8 8 6.4 8 8 17.6 16 27.2 20.8-6.4 62.4-145.6 112-316.8 112C206.4 884.8 64 832 64 768v-139.2c0 64 142.4 115.2 316.8 115.2z"
          fill="" p-id="31978"></path>
</svg>
