<?xml version="1.0" standalone="no"?><!DOCTYPE svg PUBLIC "-//W3C//DTD SVG 1.1//EN" "http://www.w3.org/Graphics/SVG/1.1/DTD/svg11.dtd"><svg t="1753783720923" class="icon" viewBox="0 0 1024 1024" version="1.1" xmlns="http://www.w3.org/2000/svg" p-id="84791" xmlns:xlink="http://www.w3.org/1999/xlink" width="200" height="200"><path d="M97.814925 250.650746c-6.113433-4.585075-9.934328-8.40597-12.226865-10.698507-1.528358-3.056716-2.292537-6.877612-2.292538-12.226866v-7.641791c0-14.519403 3.820896-26.746269 10.698508-35.152239 7.641791-8.40597 19.868657-12.991045 38.208955-12.991044l702.280597 0.764179c19.104478 0 32.095522 3.820896 38.973134 12.226865 7.641791 7.641791 10.698507 19.104478 10.698508 32.859702l0.764179 9.170149c0 5.349254-0.764179 8.40597-1.528358 10.698507s-5.349254 6.113433-13.755224 12.226866l-348.465672 209.385075c-5.349254 2.292537-12.991045 5.349254-20.632836 9.170149-8.40597 3.820896-13.755224 6.113433-16.81194 6.877612-3.056716 0-8.40597-1.528358-15.283582-4.585075-6.877612-3.056716-14.519403-6.877612-22.925373-12.226865l-347.701493-207.856717z m262.113433 231.546269c3.820896 2.292537 9.170149 5.349254 16.047761 9.934328 6.877612 4.585075 14.519403 9.170149 22.925374 15.283582 8.40597 5.349254 16.81194 10.698507 25.21791 16.811941l22.925373 15.283582c6.877612 4.585075 13.755224 7.641791 21.397015 8.40597 7.641791 0.764179 15.283582 1.528358 22.161194 0.764179 6.877612-0.764179 13.755224-1.528358 19.104478-3.820896s9.934328-3.820896 12.991044-5.349253c3.056716-1.528358 8.40597-5.349254 16.047762-9.934329 7.641791-4.585075 16.81194-9.934328 25.982089-16.047761 9.170149-5.349254 18.340299-10.698507 26.746269-16.047761 8.40597-5.349254 14.519403-9.170149 18.340298-10.698507l106.985075-66.483583c0.764179-0.764179 4.585075-3.056716 10.698507-6.877611 6.113433-3.820896 12.991045-9.170149 22.161194-14.519403s18.340299-12.226866 29.038806-19.104478c10.698507-6.877612 20.632836-12.991045 29.802986-19.104478 9.170149-6.113433 18.340299-11.462687 25.982089-16.81194 7.641791-5.349254 13.755224-9.170149 16.81194-10.698507 10.698507-6.877612 19.104478-9.170149 25.217911-8.405971 6.113433 1.528358 9.170149 6.113433 9.170149 13.755224v221.611941c-16.047761-12.991045-31.331343-25.21791-46.614925-36.680597s-29.038806-20.632836-41.265672-29.038806c-12.226866-8.40597-23.689552-11.462687-32.859701-9.17015-9.170149 2.292537-16.81194 8.40597-22.925374 16.811941-6.113433 8.40597-10.698507 18.340299-13.755223 29.802985-3.056716 11.462687-4.585075 21.397015-4.585075 30.567164 0 6.113433 0 11.462687-0.764179 15.283582 0 3.820896-0.764179 7.641791-0.764179 9.934328-0.764179 3.056716-0.764179 5.349254-0.764179 6.877612h-99.343284c-12.226866 0-21.397015 2.292537-29.038806 7.641791s-12.991045 11.462687-17.576119 19.868657c-4.585075 7.641791-6.877612 16.81194-8.40597 26.746269-1.528358 9.934328-2.292537 19.104478-2.292538 28.274627v69.540298c0 3.056716 0 6.877612 0.764179 9.170149h-117.683582c-40.501493 0-77.946269 0-113.098507-0.764179-35.152239 0-66.483582-0.764179-93.229851-0.764179h-58.841791c-20.632836 0-37.444776-3.056716-50.435821-8.40597-12.991045-5.349254-22.925373-12.226866-30.567164-20.632836s-12.226866-18.340299-15.283582-29.038806c-3.056716-10.698507-4.585075-22.925373-4.585075-34.38806v-314.841791c0-12.226866 3.056716-19.104478 8.40597-22.925373 5.349254-3.056716 12.991045-1.528358 21.397015 4.585075 3.056716 1.528358 7.641791 5.349254 15.283582 9.934328 7.641791 4.585075 16.047761 10.698507 26.746269 16.811941 9.934328 6.113433 20.632836 12.991045 32.095522 19.868656 10.698507 6.877612 21.397015 13.755224 31.331344 19.868657 9.934328 6.113433 18.340299 11.462687 25.21791 16.047761 6.877612 4.585075 11.462687 7.641791 13.755224 8.40597m683.940299 265.934329c7.641791 5.349254 11.462687 13.755224 11.462686 23.689552s-3.056716 17.576119-9.170149 22.161194c-8.40597 6.877612-18.340299 15.283582-29.802985 24.453731-11.462687 9.170149-22.925373 19.104478-35.152239 28.274627-12.226866 9.934328-24.453731 19.104478-35.916418 29.038806-11.462687 9.934328-22.161194 18.340299-32.095522 25.217911-12.226866 9.934328-20.632836 14.519403-25.217911 15.283582-4.585075 0.764179-6.877612-6.877612-6.877612-22.161194v-38.208956c0-9.934328-2.292537-17.576119-6.877612-23.689552-4.585075-6.113433-11.462687-9.170149-19.104477-9.170149h-98.579105c-7.641791 0-16.047761-3.056716-23.689552-8.40597-7.641791-5.349254-11.462687-12.991045-11.462687-22.161194v-43.558209c0-16.047761 2.292537-25.21791 7.641791-29.038806 5.349254-3.056716 14.519403-5.349254 27.510448-5.349254h16.811941c5.349254 0 10.698507 0 17.576119 0.764179 6.877612 0 14.519403 0.764179 23.689552 0.764179h35.916418c11.462687 0 19.104478-2.292537 24.453731-6.113433 4.585075-3.820896 6.877612-10.698507 6.877612-21.397014v-37.444777c0-9.934328 1.528358-16.81194 5.349254-19.868656 3.056716-3.056716 9.934328-0.764179 19.104478 6.877612 9.170149 6.877612 19.868657 15.283582 31.331343 24.453731 12.226866 9.934328 24.453731 19.104478 36.680597 29.038806 12.991045 9.934328 25.21791 19.868657 37.444776 29.802985 11.462687 10.698507 22.161194 19.104478 32.095523 26.746269z m0 0" p-id="84792"></path></svg>