<svg xmlns="http://www.w3.org/2000/svg" width="16" height="16" viewBox="0 0 24 24" fill="currentColor"><svg width="24" height="24" xmlns="http://www.w3.org/2000/svg"><path fill-rule="evenodd" clip-rule="evenodd" d="M18.137 6.33l-6.217 3.735L5.836 6.33l6.084-3.631 6.217 3.63zm-6.871 5.756L3.59 7.374a1.238 1.238 0 01.013-2.118L11.28.676A1.243 1.243 0 0112.543.67l7.843 4.58c.813.475.82 1.646.013 2.13l-7.843 4.712a1.243 1.243 0 01-1.29-.006zm-4.417-1.694c.292.49.148 1.134-.32 1.439l-.55.357 6.016 3.456 5.94-3.484-.497-.352a1.074 1.074 0 01-.265-1.45.974.974 0 011.389-.278l2.271 2.166v5.614c0 .378-.195.726-.51.91l-7.821 4.589a.994.994 0 01-.498.141.96.96 0 01-.498-.137l-7.988-4.588A1.052 1.052 0 013 17.86v-5.599c-.002-.12.016-.24.053-.354a1.037 1.037 0 01.424-.554l1.995-1.296a.976.976 0 011.377.335zM11 17.456v3.233l-6-3.446V14.01l6 3.446zm2 3.215l5.833-3.422v-3.22L13 17.45v3.221z"/></svg></svg>