<?xml version="1.0" standalone="no"?><!DOCTYPE svg PUBLIC "-//W3C//DTD SVG 1.1//EN" "http://www.w3.org/Graphics/SVG/1.1/DTD/svg11.dtd">
<svg t="1689936023371" class="icon" viewBox="0 0 1024 1024" version="1.1" xmlns="http://www.w3.org/2000/svg"
     p-id="11786"
     width="200" height="200"><path d="M490.666667 128a42.709333 42.709333 0 0 0 0 85.333333 42.709333 42.709333 0 0 0 0-85.333333zM379.349333 233.642667A322.901333 322.901333 0 0 0 208.213333 382.762667l-75.264-40.192a408.618667 408.618667 0 0 1 231.808-194.304A128.128 128.128 0 0 1 490.666667 42.666667c70.613333 0 128 57.386667 128 128 0 70.570667-57.386667 128-128 128a128 128 0 0 1-111.317334-65.024zM490.666667 938.666667a42.709333 42.709333 0 0 0 0-85.333334 42.709333 42.709333 0 0 0 0 85.333334z m111.317333-105.642667a322.901333 322.901333 0 0 0 171.136-149.12l75.264 40.192a408.618667 408.618667 0 0 1-231.808 194.346667A128.128 128.128 0 0 1 490.666667 1024c-70.613333 0-128-57.429333-128-128s57.386667-128 128-128a128 128 0 0 1 111.317333 65.024z" fill="#3671ee" p-id="11787" data-spm-anchor-id="a313x.7781069.0.i8" class="selected"></path><path d="M85.333333 533.333333a42.709333 42.709333 0 0 0 85.333334 0 42.709333 42.709333 0 0 0-85.333334 0z m105.642667 111.317334a322.901333 322.901333 0 0 0 149.12 171.136l-40.192 75.264a408.618667 408.618667 0 0 1-194.304-231.808A128.128 128.128 0 0 1 0 533.333333c0-70.613333 57.386667-128 128-128 70.570667 0 128 57.386667 128 128a128 128 0 0 1-65.024 111.317334zM853.333333 576a42.709333 42.709333 0 0 0 0-85.333333 42.709333 42.709333 0 0 0 0 85.333333z m22.442667-168.576A128.128 128.128 0 0 1 981.333333 533.333333c0 70.613333-57.429333 128-128 128s-128-57.386667-128-128a128 128 0 0 1 65.024-111.317333 322.901333 322.901333 0 0 0-149.12-171.136l40.192-75.264a408.618667 408.618667 0 0 1 194.346667 231.808z" fill="#dd7050" p-id="11788" data-spm-anchor-id="a313x.7781069.0.i6" class=""></path></svg>
