<?xml version="1.0" standalone="no"?><!DOCTYPE svg PUBLIC "-//W3C//DTD SVG 1.1//EN" "http://www.w3.org/Graphics/SVG/1.1/DTD/svg11.dtd">
<svg t="1689936402906" class="icon" viewBox="0 0 1024 1024" version="1.1" xmlns="http://www.w3.org/2000/svg"
     p-id="27437" id="mx_n_1689936402907" data-spm-anchor-id="a313x.7781069.0.i45"
     width="200" height="200"><path d="M896 303.136l-384 207.104L128 303.136l384-208z" fill="#1673F6" p-id="27438" data-spm-anchor-id="a313x.7781069.0.i44" class=""></path><path d="M512 959.136a31.904 31.904 0 0 1-15.264-3.872l-384-208.064A32 32 0 0 1 96 719.072V303.136a32 32 0 0 1 64 0v396.864l352 190.72 352-190.72V303.136a32 32 0 1 1 64 0v415.936a32 32 0 0 1-16.736 28.128l-384 208.064a31.904 31.904 0 0 1-15.264 3.872z" fill="#E56443" p-id="27439" data-spm-anchor-id="a313x.7781069.0.i41" class=""></path><path d="M895.968 335.136a32 32 0 0 1-15.232-3.872L512 131.52 143.232 331.296a32 32 0 1 1-30.464-56.288l384-208a31.968 31.968 0 0 1 30.464 0l384 208a31.968 31.968 0 0 1-15.264 60.128z" fill="#1673F6" p-id="27440" data-spm-anchor-id="a313x.7781069.0.i35" class=""></path><path d="M512.032 542.24a32 32 0 0 1-15.2-60.192l227.072-122.464a32.032 32.032 0 0 1 30.368 56.352l-227.072 122.464c-4.832 2.592-10.048 3.84-15.168 3.84z" fill="#F0C4B9" p-id="27441" data-spm-anchor-id="a313x.7781069.0.i36" class=""></path><path d="M511.968 542.24c-5.12 0-10.336-1.248-15.168-3.84L269.76 415.968a32.032 32.032 0 0 1 30.368-56.352l227.04 122.464a32 32 0 0 1-15.2 60.16z" fill="#F0C4B9" p-id="27442" data-spm-anchor-id="a313x.7781069.0.i37" class=""></path><path d="M232.16 602.432l43.136 18.368c0.896 7.008 2.784 12.928 5.664 17.76 4.64 7.84 11.264 13.888 19.936 18.048 6.464 3.136 11.456 4.128 15.008 3.008 3.488-1.152 5.28-3.584 5.28-7.328 0.032-3.52-1.632-7.52-4.928-12-3.296-4.448-11.04-10.848-23.2-19.232-19.84-13.888-34.016-26.272-42.432-37.312-8.544-11.136-12.704-22.016-12.672-32.736 0.064-7.072 2.24-12.672 6.688-16.8 4.384-4.192 11.008-5.952 19.776-5.248 8.768 0.672 20.8 4.672 36.096 12.096 18.752 9.088 33.024 19.328 42.816 30.592 9.824 11.328 15.648 24.576 17.44 39.68l-42.752-18.368a35.744 35.744 0 0 0-7.104-16.96 41.056 41.056 0 0 0-15.04-11.456c-5.28-2.56-9.248-3.424-11.968-2.688-2.656 0.8-3.968 2.752-4 5.76 0 2.176 1.056 4.672 3.264 7.488 2.112 2.816 7.232 7.008 15.2 12.448 19.808 13.632 34.016 24.544 42.528 32.736 8.576 8.32 14.784 16.384 18.656 24.384 3.872 7.936 5.792 15.616 5.728 23.168-0.032 8.768-2.656 15.648-7.936 20.608-5.216 4.896-12.512 7.072-21.888 6.336s-21.152-4.48-35.328-11.328c-24.96-12.128-42.24-24.96-51.776-38.624-9.664-13.824-15.04-27.968-16.192-42.4z" fill="#E56443" p-id="27443" data-spm-anchor-id="a313x.7781069.0.i42" class="selected"></path><path d="M674.432 567.328l40.736-22.88 2.048 103.52 63.616-35.712 0.672 33.888-104.416 58.56-2.656-137.376z" fill="#E56443" p-id="27444" data-spm-anchor-id="a313x.7781069.0.i43" class="selected"></path><path d="M573.6 747.008c5.856 3.68 9.664 6.016 11.456 6.944a112 112 0 0 0 10.816 4.768l-12.992 23.808a154.688 154.688 0 0 1-19.36-10.272c-6.4-3.968-10.88-6.944-13.44-8.928-10.272 4.064-23.264 6.08-38.784 6.08-22.976 0-41.088-5.44-54.368-16.32-15.68-12.864-23.52-30.976-23.52-54.272 0-22.624 6.848-40.192 20.608-52.672 13.728-12.576 32.896-18.816 57.536-18.816 25.12 0 44.512 6.08 58.144 18.336 13.664 12.288 20.544 29.792 20.544 52.608-0.128 20.288-5.6 36.544-16.64 48.736z m-35.776-21.76c3.68-6.048 5.568-15.136 5.568-27.2 0-13.92-2.88-23.808-8.544-29.76s-13.504-8.864-23.456-8.864a30.016 30.016 0 0 0-22.624 9.056c-5.76 6.048-8.672 15.52-8.672 28.448 0 15.008 2.848 25.536 8.48 31.552 5.632 6.048 13.376 9.088 23.232 9.088 3.168 0 6.144-0.288 8.96-0.832-3.904-3.392-10.112-6.688-18.56-9.76l7.328-15.296c4.128 0.672 7.36 1.536 9.664 2.528 2.304 0.992 6.784 3.616 13.472 7.872 1.504 1.12 3.264 2.112 5.152 3.168z" fill="#E56443" p-id="27445" data-spm-anchor-id="a313x.7781069.0.i39" class="selected"></path></svg>
