<?xml version="1.0" standalone="no"?><!DOCTYPE svg PUBLIC "-//W3C//DTD SVG 1.1//EN"
        "http://www.w3.org/Graphics/SVG/1.1/DTD/svg11.dtd">
<svg t="1753783637921" class="icon" viewBox="0 0 1024 1024" version="1.1" xmlns="http://www.w3.org/2000/svg"
     p-id="81184" width="200" height="200">
    <path d="M786.090667 56.900267l181.009066 175.035733v665.156267a70.007467 70.007467 0 0 1-69.973333 70.007466H126.8736a70.007467 70.007467 0 0 1-70.007467-69.973333V126.8736c0-38.673067 31.3344-70.007467 69.973334-70.007467H786.090667z m-23.005867 56.866133H126.907733a13.141333 13.141333 0 0 0-12.868266 10.478933l-0.273067 2.6624v770.184534c0 6.3488 4.5056 11.639467 10.478933 12.868266l2.6624 0.273067h770.184534c6.3488 0 11.639467-4.5056 12.868266-10.478933l0.273067-2.6624-0.034133-641.058134-147.114667-142.267733z"
          fill="" p-id="81185"></path>
    <path d="M750.865067 113.7664v159.232h159.3344V512H113.7664V126.907733l0.273067-2.6624a13.141333 13.141333 0 0 1 12.868266-10.478933h623.957334zM503.125333 211.6608c-28.945067 0-53.1456 8.6016-72.567466 25.838933-23.8592 21.060267-35.771733 52.189867-35.771734 93.320534 0 40.8576 11.605333 71.816533 34.816 92.910933 19.182933 17.5104 43.4176 26.282667 72.738134 26.282667 14.062933 0 26.146133-1.706667 36.215466-5.051734 4.778667-1.6384 10.3424-4.1984 16.5888-7.714133l4.778667-2.833067 27.204267 25.668267 24.610133-25.668267-25.941333-24.302933a83.968 83.968 0 0 0 17.544533-32.221867c4.881067-13.550933 7.338667-30.378667 7.338667-50.414933 0-37.888-11.434667-67.3792-34.235734-88.4736-19.7632-18.2272-44.202667-27.306667-73.3184-27.306667z m-229.1712 0.3072c-28.433067 0-49.9712 6.656-64.648533 20.002133-14.677333 13.346133-21.981867 30.1056-21.981867 50.2784 0 22.084267 7.5776 38.331733 22.766934 48.7424 7.953067 5.5296 21.640533 10.683733 41.028266 15.4624l7.543467 1.809067 23.825067 5.3248c13.994667 3.072 24.234667 6.587733 30.72 10.581333 6.519467 4.027733 9.762133 9.796267 9.762133 17.237334 0 12.731733-6.5536 21.435733-19.694933 26.112-6.929067 2.4576-15.940267 3.6864-27.0336 3.6864-18.5344 0-31.6416-4.642133-39.253334-13.9264a40.106667 40.106667 0 0 1-7.406933-17.2032l-1.024-5.870934H183.637333c0 23.4496 8.430933 41.847467 25.224534 55.261867 16.7936 13.380267 39.867733 20.0704 69.2224 20.0704 28.706133 0 50.926933-6.826667 66.6624-20.3776 15.735467-13.6192 23.620267-30.72 23.620266-51.268267 0-20.0704-6.724267-35.396267-20.1728-45.9776-7.406933-5.870933-17.92-10.683733-31.470933-14.5408l-7.031467-1.809066-38.8096-9.3184c-14.9504-3.584-24.746667-6.690133-29.354666-9.3184a19.387733 19.387733 0 0 1-10.6496-18.056534c0-8.738133 3.584-15.5648 10.820266-20.48 7.236267-4.881067 16.930133-7.304533 29.013334-7.304533 10.922667 0 20.036267 1.877333 27.374933 5.632 9.6256 5.0176 15.36 12.970667 17.169067 23.995733l0.546133 4.881067h45.226667c-0.8192-23.893333-9.591467-42.1888-26.350934-54.749867-16.759467-12.5952-37.000533-18.875733-60.757333-18.875733z m419.669334 6.587733h-47.069867V443.733333h158.583467v-40.482133h-111.5136V218.555733z m-190.805334 32.9728c19.8656 0 34.952533 6.894933 45.294934 20.718934 10.3424 13.789867 15.496533 33.314133 15.496533 58.5728 0 11.025067-1.1264 20.650667-3.345067 28.8768-1.092267 4.130133-2.730667 8.772267-5.0176 13.9264l-2.491733 5.3248-22.766933-21.674667-24.2688 25.361067 22.766933 21.674666a60.5184 60.5184 0 0 1-26.112 5.802667c-14.404267 0-26.7264-4.334933-37.000533-12.970667-15.872-13.346133-23.825067-35.464533-23.825067-66.321066 0-26.385067 5.5296-46.1824 16.657067-59.392 11.093333-13.277867 25.941333-19.899733 44.612266-19.899734zM365.704533 666.0096l-80.452266 80.418133 80.452266 80.4864-40.209066 40.209067L204.8 746.496l120.695467-120.695467zM657.3056 666.0096l80.452267 80.452267-80.452267 80.452266 40.2432 40.209067 120.661333-120.661333-120.661333-120.695467z"
          fill="" p-id="81186"></path>
</svg>
