<svg xmlns="http://www.w3.org/2000/svg" width="1em" height="1em" viewBox="0 0 24 24" fill="currentColor"><svg width="24" height="24" fill="none" xmlns="http://www.w3.org/2000/svg"><g style="mix-blend-mode: multiply;"><rect x="2" y="10" width="4" height="12" fill="#F66C47"/></g><g style="mix-blend-mode: multiply;"><path d="M18 2h4v10h-4V2z" fill="#F66C47"/></g><g style="mix-blend-mode: multiply;"><rect x="18" y="16" width="4" height="6" fill="#F66C47"/></g><g style="mix-blend-mode: multiply;"><path fill-rule="evenodd" clip-rule="evenodd" d="M20.5 9.488c-1.251.125-4.064.763-6.5 4.012-1.968 2.625-3.96 4.13-5.862 4.973-1.771.784-3.326.921-4.247 1.002-.058.005-.565.01-.617.015v-4.98l.097-.009c.903-.081 1.742-.157 2.742-.6 1.014-.45 2.357-1.36 3.887-3.401 3.563-4.751 8.418-5.78 10.5-5.988v4.976z" fill="#1673F6"/></g></svg></svg>